<?xml version="1.0" standalone="no"?>
<!DOCTYPE svg PUBLIC "-//W3C//DTD SVG 20010904//EN"
 "http://www.w3.org/TR/2001/REC-SVG-20010904/DTD/svg10.dtd">
<svg version="1.0" xmlns="http://www.w3.org/2000/svg"
 width="225.000000pt" height="225.000000pt" viewBox="0 0 225.000000 225.000000"
 preserveAspectRatio="xMidYMid meet">
<metadata>
Created by potrace 1.16, written by Peter Selinger 2001-2019
</metadata>
<g transform="translate(0.000000,225.000000) scale(0.100000,-0.100000)"
fill="#000000" stroke="none">
<path d="M977 2070 c-90 -23 -176 -91 -217 -170 -16 -32 -26 -40 -48 -40 -37
0 -88 -33 -112 -72 -18 -30 -20 -51 -20 -246 0 -227 3 -243 52 -289 14 -13 49
-28 82 -35 49 -9 66 -19 106 -59 l47 -47 -5 -71 c-2 -39 -10 -75 -16 -79 -6
-5 -174 -58 -374 -117 l-362 -109 2 -281 3 -280 1010 0 1010 0 3 280 2 281
-342 103 c-189 57 -357 109 -374 116 -30 12 -31 16 -36 85 l-5 72 47 47 c40
40 57 50 106 59 33 7 68 22 82 35 49 46 52 62 52 289 0 195 -2 216 -20 246
-24 39 -75 72 -112 72 -22 0 -32 8 -48 40 -30 59 -94 118 -159 148 -50 23 -70
26 -186 29 -71 1 -147 -2 -168 -7z m341 -63 c56 -31 114 -90 138 -142 19 -40
24 -67 24 -133 0 -76 -2 -84 -20 -89 -17 -5 -20 -14 -20 -68 0 -42 -5 -66 -14
-75 -21 -16 -8 -40 21 -40 38 0 83 -51 83 -95 0 -45 -45 -95 -84 -95 -25 0
-30 -7 -27 -40 0 -8 -2 -19 -7 -25 -10 -14 -119 -105 -126 -105 -3 0 -6 37 -8
83 l-3 82 -150 0 -150 0 -3 -82 c-2 -46 -5 -83 -8 -83 -9 0 -128 101 -137 116
-4 7 -3 15 2 19 18 10 -1 35 -26 35 -38 0 -83 51 -83 95 0 41 44 95 78 95 29
0 46 24 27 40 -10 9 -15 31 -15 75 0 54 -3 63 -20 68 -18 5 -20 13 -20 89 0
118 33 182 132 257 44 33 92 41 238 38 117 -2 151 -6 178 -20z m-78 -866 c0
-77 -1 -80 -32 -106 -64 -54 -113 -53 -170 2 -26 25 -28 32 -28 105 l0 78 115
0 115 0 0 -79z m-255 -125 c113 -96 166 -96 279 -1 36 30 67 55 69 55 2 0 7
-26 10 -57 5 -55 2 -63 -51 -165 -60 -115 -89 -143 -122 -113 -21 19 -69 19
-90 0 -33 -30 -62 -2 -122 113 -53 102 -56 110 -51 165 3 31 8 57 10 57 2 0
33 -24 68 -54z m-86 -157 c24 -44 41 -82 39 -85 -3 -2 -45 11 -94 30 -108 42
-117 38 -112 -46 2 -32 1 -58 -2 -58 -7 1 -90 128 -90 138 0 5 17 14 38 20 20
6 66 27 102 46 36 20 68 36 71 36 3 0 24 -36 48 -81z m579 42 c42 -22 89 -43
105 -46 15 -4 27 -11 27 -16 0 -11 -83 -138 -90 -139 -3 0 -4 26 -2 58 5 84
-4 88 -112 46 -49 -19 -91 -32 -94 -30 -4 5 79 166 85 166 2 0 39 -18 81 -39z
m-193 -401 c39 -12 73 -25 77 -29 4 -4 -28 -62 -72 -129 l-79 -122 -86 0 -86
0 -74 114 c-41 63 -76 120 -77 127 -2 7 29 22 81 39 107 34 213 34 316 0z"/>
<path d="M923 1655 c-73 -31 -51 -145 28 -145 43 0 65 15 78 50 24 69 -37 124
-106 95z"/>
<path d="M1260 1657 c-60 -31 -61 -108 -1 -139 58 -29 111 4 111 70 0 58 -60
95 -110 69z"/>
</g>
</svg>
