<?xml version="1.0" standalone="no"?>
<!DOCTYPE svg PUBLIC "-//W3C//DTD SVG 20010904//EN"
 "http://www.w3.org/TR/2001/REC-SVG-20010904/DTD/svg10.dtd">
<svg version="1.0" xmlns="http://www.w3.org/2000/svg"
 width="225.000000pt" height="225.000000pt" viewBox="0 0 225.000000 225.000000"
 preserveAspectRatio="xMidYMid meet">
<metadata>
Created by potrace 1.16, written by Peter Selinger 2001-2019
</metadata>
<g transform="translate(0.000000,225.000000) scale(0.100000,-0.100000)"
fill="#000000" stroke="none">
<path d="M1011 1979 c-129 -22 -222 -112 -267 -258 -10 -31 -22 -204 -40 -540
-14 -271 -23 -495 -21 -497 2 -2 44 6 93 18 60 15 100 31 124 50 19 15 42 28
51 28 23 0 29 32 19 97 -8 44 -18 64 -56 106 -26 29 -63 86 -82 127 -19 41
-47 86 -62 100 -37 35 -62 158 -39 198 30 54 39 39 39 -66 0 -144 -1 -144 165
-140 l130 3 25 63 c14 35 30 64 35 64 5 0 21 -29 35 -64 l25 -63 130 -3 c165
-4 165 -4 165 139 0 103 7 118 36 74 13 -20 15 -37 9 -82 -9 -72 -32 -131 -53
-138 -10 -2 -34 -40 -54 -83 -20 -43 -58 -102 -84 -131 -40 -44 -49 -62 -55
-107 -9 -64 -2 -94 20 -94 9 0 32 -13 52 -29 25 -21 62 -36 123 -50 48 -12 90
-21 93 -21 3 0 2 48 -1 108 -3 59 -11 197 -16 307 -33 641 -33 644 -94 739
-35 54 -89 107 -134 130 -35 17 -239 28 -311 15z m338 -344 c28 -58 51 -109
51 -114 0 -11 -562 -16 -573 -5 -18 19 60 117 117 146 37 19 278 75 333 77 17
1 30 -18 72 -104z m90 -159 c8 -9 11 -52 9 -127 l-3 -114 -121 -3 -121 -3 -24
62 c-13 34 -32 67 -41 72 -24 16 -53 -13 -68 -68 -7 -25 -18 -49 -25 -55 -8
-7 -57 -10 -126 -8 l-114 3 -3 115 c-2 99 0 116 15 127 26 20 606 18 622 -1z"/>
</g>
</svg>
