<?xml version="1.0" standalone="no"?>
<!DOCTYPE svg PUBLIC "-//W3C//DTD SVG 20010904//EN"
 "http://www.w3.org/TR/2001/REC-SVG-20010904/DTD/svg10.dtd">
<svg version="1.0" xmlns="http://www.w3.org/2000/svg"
 width="225.000000pt" height="225.000000pt" viewBox="0 0 225.000000 225.000000"
 preserveAspectRatio="xMidYMid meet">
<metadata>
Created by potrace 1.16, written by Peter Selinger 2001-2019
</metadata>
<g transform="translate(0.000000,225.000000) scale(0.100000,-0.100000)"
fill="#000000" stroke="none">
<path d="M990 2239 c-159 -18 -360 -94 -502 -190 -235 -158 -412 -433 -469
-729 -16 -84 -16 -306 0 -390 71 -368 299 -663 633 -820 79 -37 274 -97 284
-87 2 2 -4 46 -15 98 -24 119 -51 325 -51 393 0 29 -5 57 -11 63 -11 11 7 19
99 43 39 10 42 13 42 45 l0 35 125 0 125 0 0 -35 c0 -32 3 -35 43 -45 77 -20
112 -33 100 -37 -8 -3 -13 -24 -13 -58 0 -66 -24 -255 -50 -394 -11 -58 -18
-106 -16 -109 2 -2 48 8 101 22 312 83 572 296 715 585 79 159 113 309 113
496 0 188 -34 337 -113 498 -82 164 -225 329 -368 426 -149 100 -340 171 -515
190 -108 12 -149 12 -257 0z m77 -699 c55 -10 82 -10 116 -1 148 37 197 -13
197 -201 l0 -88 36 17 c41 20 57 14 92 -38 19 -27 23 -43 19 -81 -4 -51 -42
-112 -76 -123 -11 -3 -30 -32 -46 -70 -36 -86 -60 -115 -93 -115 -20 0 -33 10
-49 34 -31 48 -115 73 -182 55 -64 -17 -78 -25 -98 -59 -13 -23 -25 -30 -48
-30 -34 0 -62 33 -91 110 -9 25 -36 63 -59 85 -77 74 -83 176 -13 228 26 19
30 20 60 5 l33 -15 2 93 c2 115 25 177 75 199 18 8 38 13 43 11 6 -2 42 -9 82
-16z"/>
</g>
</svg>
